<?xml version="1.0" encoding="utf-8"?>
<!-- Generator: Adobe Illustrator 19.2.1, SVG Export Plug-In . SVG Version: 6.00 Build 0)  -->
<svg version="1.1" id="Layer_1" xmlns="http://www.w3.org/2000/svg" xmlns:xlink="http://www.w3.org/1999/xlink" x="0px" y="0px"
	 viewBox="0 0 379.3 320.5" style="enable-background:new 0 0 379.3 320.5;" xml:space="preserve">
<style type="text/css">
	.st0{fill:#FFFFFF;}
</style>
<path class="st0" d="M116.8,240c0,11.2-9.1,20.3-20.3,20.3c-3.5,0-6.7-0.9-9.6-2.4v-9.9c2.3,2.8,5.8,4.6,9.7,4.6
	c6.9,0,12.5-5.6,12.5-12.5c0-6.9-5.6-12.5-12.5-12.5c-6.9,0-12.5,5.6-12.5,12.5h0v37.4h-7.8V240h0c0-11.2,9.1-20.3,20.3-20.3
	S116.8,228.8,116.8,240z"/>
<path class="st0" d="M222.8,201.1h9.8v7.8h-9.8v0c-6.9,0-12.5,5.6-12.5,12.5v5.2h21.6v7.8h-21.6v25.5h-7.8v-38.5
	C202.5,210.2,211.6,201.1,222.8,201.1z"/>
<path class="st0" d="M320.8,243h8c-0.9,5.9-4.3,11.3-9.9,14.5c-9.7,5.6-22.1,2.3-27.7-7.4c-5.6-9.7-2.3-22.1,7.4-27.7
	c9.7-5.6,22.1-2.3,27.7,7.4c0.7,1.2,1.2,2.4,1.6,3.6l-16.4,9.5l-8.1,4.7l-3.9-6.8l17.5-10.1c-3.9-3.5-9.7-4.3-14.5-1.5
	c-6,3.4-8,11.1-4.6,17c3.4,6,11.1,8,17,4.6C318,249,320,246.2,320.8,243z"/>
<path class="st0" d="M354.8,219.7v7.8h-1.6c-3.4,0-6.5,1.4-8.8,3.6c-2.3,2.3-3.7,5.4-3.7,8.8v19.9H333v-40h7.8v4.1
	c3.4-2.7,7.8-4.3,12.5-4.3H354.8z"/>
<path class="st0" d="M65.5,207.1c3.7,3.7,5.9,8.7,5.9,14.3v38.5h-7.8v-26.3H43.6v-7.8h20.1v-4.4h0c0-6.9-5.6-12.5-12.5-12.5
	s-12.5,5.6-12.5,12.5h0v38.5h-7.8v-38.5c0-11.2,9.1-20.3,20.3-20.3C56.8,201.1,61.9,203.4,65.5,207.1z"/>
<path class="st0" d="M189.7,149.9l14.7,27.4c1,1.9,0.8,4.6-0.4,6.2l-17.6,22.5c-1.2,1.5-3,1.3-4-0.6l-14.7-27.4
	c-1-1.9-0.8-4.6,0.4-6.2l17.6-22.6c0.5-0.6,1.1-1,1.7-1C188.3,148.3,189.1,148.8,189.7,149.9z"/>
<rect x="236.4" y="201.1" class="st0" width="7.8" height="58.8"/>
<path class="st0" d="M160.8,240c0,11.2-9.1,20.3-20.3,20.3c-3.5,0-6.7-0.9-9.6-2.4v-9.9c2.3,2.8,5.8,4.6,9.7,4.6
	c6.9,0,12.5-5.6,12.5-12.5c0-6.9-5.6-12.5-12.5-12.5s-12.5,5.6-12.5,12.5h0v37.4h-7.8V240h0c0-11.2,9.1-20.3,20.3-20.3
	S160.8,228.8,160.8,240z"/>
<path class="st0" d="M184.4,141.1c1.7,3.2,0.3,5.7-3.1,5.7l-49.5,0.1c-3.4,0-7.5-2.5-9.1-5.7L98.4,95c-0.5-0.9-0.7-1.8-0.7-2.5
	c0-1.8,1.3-3.1,3.6-3.2h0.2l49.5-0.1c3.4,0,7.5,2.5,9.1,5.7L184.4,141.1z"/>
<path class="st0" d="M223.4,102.1L193.9,140c-2,2.6-5,2.1-6.7-1l-24.7-46c-1.7-3.1-1.4-7.8,0.6-10.4l29.5-37.9
	c0.8-1.1,1.9-1.6,2.9-1.7c1.4,0,2.8,0.9,3.8,2.7l24.7,46C225.7,94.9,225.4,99.5,223.4,102.1z"/>
<path class="st0" d="M276.9,220h7.8v24.6h0c-0.1,7.9-5.6,14.5-13,16.2v16.7h-7.8v-16.7c-7.4-1.8-12.9-8.3-13-16.2h0V220h7.8v24.5h0
	c0.1,4.9,4.1,8.9,9.1,8.9c2.5,0,4.7-1,6.4-2.6c1.6-1.6,2.7-3.8,2.7-6.3V220z"/>
<path class="st0" d="M243.9,175.9c1,1.9,0.2,3.4-1.8,3.4l-29.5,0.3c-2,0-4.5-1.5-5.5-3.4l-14.7-27.4c-0.3-0.5-0.4-1.1-0.4-1.5
	c0-1.1,0.8-1.9,2.1-1.9h0.1l29.5-0.3c2,0,4.4,1.5,5.4,3.3L243.9,175.9z"/>
<path class="st0" d="M195.1,254.3c-1.7,3.6-5.2,5.6-8.8,5.6v0h-22.7v-7.8h22.7v0c0.7,0,1.4-0.4,1.8-1.1c0.5-1,0-2.1-0.9-2.6v0
	l-19.4-9.1c-4.8-2.3-6.9-8.1-4.7-12.9c1.6-3.5,5.2-5.6,8.8-5.6v0H194v7.8h-22.2v0c-0.7,0-1.4,0.4-1.7,1.1c-0.4,1,0,2.1,0.9,2.5v0
	l19.4,9C195.3,243.6,197.4,249.4,195.1,254.3z"/>
</svg>
